<svg width="46" height="51" viewBox="0 0 46 51" fill="none" xmlns="http://www.w3.org/2000/svg">
<rect width="46" height="50.7083" rx="15" fill="white"/>
<path d="M22.9999 23.3333C25.3011 23.3333 27.1666 21.4679 27.1666 19.1667C27.1666 16.8655 25.3011 15 22.9999 15C20.6987 15 18.8333 16.8655 18.8333 19.1667C18.8333 21.4679 20.6987 23.3333 22.9999 23.3333Z" fill="black"/>
<path d="M29.0823 26.8575C28.5896 26.8627 28.1302 26.8814 27.7302 26.9345C27.0604 27.0252 26.3271 27.2397 25.7219 27.846C25.1156 28.4512 24.9011 29.1845 24.8115 29.8543C24.7302 30.4564 24.7302 31.1918 24.7302 31.9731V32.1522C24.7302 32.9335 24.7302 33.6689 24.8115 34.271C24.874 34.7408 24.999 35.2418 25.2771 35.7085H25.2511C16.9177 35.7085 16.9177 33.6095 16.9177 31.021C16.9177 28.4325 20.649 26.3335 25.2511 26.3335C26.6323 26.3335 27.9354 26.522 29.0823 26.8575Z" fill="black"/>
<path fill-rule="evenodd" clip-rule="evenodd" d="M35.9375 50.7084C31.1937 50.7084 28.8219 50.7084 27.3499 49.4077C25.875 48.1096 25.875 46.0178 25.875 41.8344C25.875 37.651 25.875 35.5593 27.3499 34.2611C28.8219 32.9604 31.1937 32.9604 35.9375 32.9604C40.6812 32.9604 43.0531 32.9604 44.5251 34.2611C46 35.5593 46 37.651 46 41.8344C46 46.0178 46 48.1096 44.5251 49.4077C43.0531 50.7084 40.6812 50.7084 35.9375 50.7084ZM37.6136 37.8893C37.6136 37.4973 37.437 37.1213 37.1227 36.8441C36.8084 36.5669 36.382 36.4112 35.9375 36.4112C35.493 36.4112 35.0666 36.5669 34.7523 36.8441C34.438 37.1213 34.2614 37.4973 34.2614 37.8893V40.3563H31.464C31.0195 40.3563 30.5931 40.512 30.2788 40.7892C29.9645 41.0664 29.7879 41.4424 29.7879 41.8344C29.7879 42.2264 29.9645 42.6024 30.2788 42.8796C30.5931 43.1568 31.0195 43.3126 31.464 43.3126H34.2614V45.7795C34.2614 46.1715 34.438 46.5475 34.7523 46.8247C35.0666 47.1019 35.493 47.2577 35.9375 47.2577C36.382 47.2577 36.8084 47.1019 37.1227 46.8247C37.437 46.5475 37.6136 46.1715 37.6136 45.7795V43.3126H40.411C40.8555 43.3126 41.2819 43.1568 41.5962 42.8796C41.9105 42.6024 42.0871 42.2264 42.0871 41.8344C42.0871 41.4424 41.9105 41.0664 41.5962 40.7892C41.2819 40.512 40.8555 40.3563 40.411 40.3563H37.6136V37.8893Z" fill="black"/>
</svg>
