<svg width="25" height="26" viewBox="0 0 25 26" fill="none" xmlns="http://www.w3.org/2000/svg">
<path d="M0.169046 1.61816C0.455506 0.93457 1.06315 0.5 1.7359 0.5H20.4861C21.1588 0.5 21.7665 0.93457 22.0529 1.61816C22.3394 2.30176 22.2526 3.10742 21.8272 3.69336L17.2048 10.0508C13.7239 10.8564 11.111 14.3184 11.111 18.4688C11.111 19.8066 11.3844 21.0762 11.8705 22.2041C11.8011 22.165 11.7317 22.1162 11.6665 22.0625L8.88874 19.7188C8.53718 19.4258 8.33318 18.9619 8.33318 18.4688V14.6064L0.390402 3.68848C-0.030609 3.10742 -0.121756 2.29687 0.169046 1.61816ZM18.7499 11.4375C20.4076 11.4375 21.9973 12.1783 23.1694 13.4969C24.3415 14.8155 25 16.6039 25 18.4688C25 20.3336 24.3415 22.122 23.1694 23.4406C21.9973 24.7592 20.4076 25.5 18.7499 25.5C17.0923 25.5 15.5026 24.7592 14.3305 23.4406C13.1584 22.122 12.4999 20.3336 12.4999 18.4688C12.4999 16.6039 13.1584 14.8155 14.3305 13.4969C15.5026 12.1783 17.0923 11.4375 18.7499 11.4375ZM21.3238 16.6768C21.5929 16.374 21.5929 15.876 21.3238 15.5732C21.0547 15.2705 20.6119 15.2705 20.3428 15.5732L18.7499 17.3652L17.157 15.5732C16.8879 15.2705 16.4452 15.2705 16.1761 15.5732C15.907 15.876 15.907 16.374 16.1761 16.6768L17.769 18.4688L16.1761 20.2607C15.907 20.5635 15.907 21.0615 16.1761 21.3643C16.4452 21.667 16.8879 21.667 17.157 21.3643L18.7499 19.5723L20.3428 21.3643C20.6119 21.667 21.0547 21.667 21.3238 21.3643C21.5929 21.0615 21.5929 20.5635 21.3238 20.2607L19.7309 18.4688L21.3238 16.6768Z" fill="white"/>
</svg>
