<svg width="18" height="22" viewBox="0 0 18 22" fill="none" xmlns="http://www.w3.org/2000/svg">
<path d="M8.76667 13.0296L2.23333 21.0352C1.98889 21.3347 1.67778 21.4845 1.3 21.4845C0.922222 21.4845 0.611111 21.3347 0.366666 21.0352C0.122222 20.7357 0 20.3545 0 19.8916C0 19.4286 0.122222 19.0474 0.366666 18.7479L6.9 10.7423L0.366666 2.73662C0.122222 2.43709 0 2.05587 0 1.59296C0 1.13005 0.122222 0.748826 0.366666 0.449295C0.611111 0.149765 0.922222 0 1.3 0C1.67778 0 1.98889 0.149765 2.23333 0.449295L8.76667 8.45493L15.3 0.449295C15.5444 0.149765 15.8556 0 16.2333 0C16.6111 0 16.9222 0.149765 17.1667 0.449295C17.4111 0.748826 17.5333 1.13005 17.5333 1.59296C17.5333 2.05587 17.4111 2.43709 17.1667 2.73662L10.6333 10.7423L17.1667 18.7479C17.4111 19.0474 17.5333 19.4286 17.5333 19.8916C17.5333 20.3545 17.4111 20.7357 17.1667 21.0352C16.9222 21.3347 16.6111 21.4845 16.2333 21.4845C15.8556 21.4845 15.5444 21.3347 15.3 21.0352L8.76667 13.0296Z" fill="black"/>
</svg>
