<svg width="22" height="24" viewBox="0 0 22 24" fill="none" xmlns="http://www.w3.org/2000/svg">
<path d="M7.2332 18L10.6999 14.5333L14.1665 18L16.0332 16.1333L12.5665 12.6667L16.0332 9.2L14.1665 7.33333L10.6999 10.8L7.2332 7.33333L5.36654 9.2L8.8332 12.6667L5.36654 16.1333L7.2332 18ZM4.0332 24C3.29987 24 2.67187 23.7387 2.1492 23.216C1.62654 22.6933 1.36565 22.0658 1.36654 21.3333V4H0.0332031V1.33333H6.69987V0H14.6999V1.33333H21.3665V4H20.0332V21.3333C20.0332 22.0667 19.7719 22.6947 19.2492 23.2173C18.7265 23.74 18.099 24.0009 17.3665 24H4.0332Z" fill="black"/>
</svg>
