<svg width="42" height="45" viewBox="0 0 42 45" fill="none" xmlns="http://www.w3.org/2000/svg">
<path d="M23.3348 22V32.5067C23.3881 32.9067 23.2548 33.3333 22.9481 33.6133C22.8248 33.7369 22.6783 33.835 22.517 33.9019C22.3557 33.9688 22.1828 34.0033 22.0081 34.0033C21.8335 34.0033 21.6606 33.9688 21.4993 33.9019C21.338 33.835 21.1915 33.7369 21.0681 33.6133L18.3881 30.9333C18.2427 30.7912 18.1322 30.6173 18.0651 30.4253C17.998 30.2333 17.9762 30.0285 18.0015 29.8267V22H17.9615L10.2815 12.16C10.065 11.882 9.96726 11.5297 10.0097 11.1799C10.0522 10.8301 10.2314 10.5114 10.5081 10.2933C10.7615 10.1067 11.0415 10 11.3348 10H30.0015C30.2948 10 30.5748 10.1067 30.8281 10.2933C31.1049 10.5114 31.2841 10.8301 31.3266 11.1799C31.369 11.5297 31.2713 11.882 31.0548 12.16L23.3748 22H23.3348Z" fill="#989898"/>
</svg>
