<svg width="24" height="24" viewBox="0 0 24 24" fill="none" xmlns="http://www.w3.org/2000/svg">
<path d="M22 0H2C1.46957 0 0.960859 0.210714 0.585786 0.585786C0.210714 0.960859 0 1.46957 0 2V22C0 22.5304 0.210714 23.0391 0.585786 23.4142C0.960859 23.7893 1.46957 24 2 24H22C22.5304 24 23.0391 23.7893 23.4142 23.4142C23.7893 23.0391 24 22.5304 24 22V2C24 1.46957 23.7893 0.960859 23.4142 0.585786C23.0391 0.210714 22.5304 0 22 0ZM17 13H9.41375L11.7075 15.2925C11.8004 15.3854 11.8741 15.4957 11.9244 15.6171C11.9747 15.7385 12.0006 15.8686 12.0006 16C12.0006 16.1314 11.9747 16.2615 11.9244 16.3829C11.8741 16.5043 11.8004 16.6146 11.7075 16.7075C11.6146 16.8004 11.5043 16.8741 11.3829 16.9244C11.2615 16.9747 11.1314 17.0006 11 17.0006C10.8686 17.0006 10.7385 16.9747 10.6171 16.9244C10.4957 16.8741 10.3854 16.8004 10.2925 16.7075L6.2925 12.7075C6.19952 12.6146 6.12576 12.5043 6.07544 12.3829C6.02512 12.2615 5.99921 12.1314 5.99921 12C5.99921 11.8686 6.02512 11.7385 6.07544 11.6171C6.12576 11.4957 6.19952 11.3854 6.2925 11.2925L10.2925 7.2925C10.4801 7.10486 10.7346 6.99944 11 6.99944C11.2654 6.99944 11.5199 7.10486 11.7075 7.2925C11.8951 7.48014 12.0006 7.73464 12.0006 8C12.0006 8.26536 11.8951 8.51986 11.7075 8.7075L9.41375 11H17C17.2652 11 17.5196 11.1054 17.7071 11.2929C17.8946 11.4804 18 11.7348 18 12C18 12.2652 17.8946 12.5196 17.7071 12.7071C17.5196 12.8946 17.2652 13 17 13Z" fill="#8D8D8D"/>
</svg>
