<svg width="32" height="32" viewBox="0 0 32 32" fill="none" xmlns="http://www.w3.org/2000/svg">
<path d="M4.3915 20.7675C8.593 24.968 15.2135 25.261 19.7585 21.6575L20.7055 22.6035L19.919 23.3895L26.341 29.811C26.102 30.189 25.9985 30.48 26.118 30.5985L26.4695 30.9495C27.041 31.522 31.5215 27.04 30.95 26.4685L30.5985 26.118C30.48 25.999 30.1895 26.1015 29.8125 26.3405L23.3895 19.919L22.6035 20.705L21.657 19.7585C25.26 15.213 24.9675 8.592 20.7675 4.391C16.2455 -0.130497 8.9135 -0.130497 4.3915 4.391C-0.131 8.914 -0.13 16.2455 4.3915 20.7675ZM5.756 5.7565C9.524 1.988 15.6355 1.988 19.4025 5.7565C23.171 9.524 23.171 15.6355 19.4025 19.403C15.6345 23.172 9.525 23.171 5.756 19.403C1.989 15.6345 1.988 9.525 5.756 5.7565Z" fill="#676767"/>
<path d="M4.34156 11.951C4.75693 13.0544 5.40279 14.0565 6.23606 14.8905C9.49256 18.1475 14.7741 18.1475 18.0321 14.889C19.409 13.5162 20.2607 11.7038 20.4386 9.76752C21.5666 12.742 20.9386 16.2305 18.5436 18.6255C15.2861 21.883 10.0046 21.883 6.74706 18.6255C4.92006 16.8 4.11956 14.337 4.34156 11.951Z" fill="#676767"/>
</svg>
