<svg width="30" height="16" viewBox="0 0 30 16" fill="none" xmlns="http://www.w3.org/2000/svg">
<path d="M14.8 0C5.7173 0 0.133301 8 0.133301 8C0.133301 8 5.7173 16 14.8 16C23.8826 16 29.4666 8 29.4666 8C29.4666 8 23.8826 0 14.8 0ZM14.8 13.3333C9.54263 13.3333 5.5653 10.0213 3.62797 8C5.01463 6.55333 7.44397 4.45733 10.6333 3.37467C9.88223 4.30788 9.47082 5.46876 9.46663 6.66667C9.46663 8.08115 10.0285 9.43771 11.0287 10.4379C12.0289 11.4381 13.3855 12 14.8 12C16.2145 12 17.571 11.4381 18.5712 10.4379C19.5714 9.43771 20.1333 8.08115 20.1333 6.66667C20.1291 5.46876 19.7177 4.30788 18.9666 3.37467C22.1573 4.45733 24.588 6.55467 25.972 8C24.032 10.024 20.056 13.3333 14.8 13.3333Z" fill="black"/>
</svg>
